<svg version="1.1" id="Layer_1" xmlns="http://www.w3.org/2000/svg" xmlns:xlink="http://www.w3.org/1999/xlink" x="0px" y="0px"
	 width="100%" viewBox="0 0 500 500" enable-background="new 0 0 500 500" xml:space="preserve">
<path fill="#8C3C03" opacity="1.000000" stroke="none" 
	d="
M340.000000,501.000000 
	C226.666687,501.000000 113.833389,501.000000 1.000061,501.000000 
	C1.000040,334.333405 1.000040,167.666794 1.000020,1.000150 
	C167.666565,1.000100 334.333130,1.000100 500.999756,1.000050 
	C500.999847,167.666519 500.999847,334.333038 500.999939,500.999786 
	C447.500000,501.000000 394.000000,501.000000 340.000000,501.000000 
M319.193970,329.476471 
	C319.422363,329.720154 319.697662,329.885864 320.311798,330.446625 
	C320.771271,330.747223 321.230743,331.047852 322.072754,331.883972 
	C325.869354,334.920258 329.665955,337.956543 333.466339,341.044891 
	C333.466339,341.044891 333.517273,341.033447 333.873962,341.644043 
	C340.869171,347.478088 347.864349,353.312164 355.234131,359.694824 
	C363.447571,366.512329 371.661041,373.329865 380.221802,380.714478 
	C386.978241,386.281250 393.734650,391.847992 400.484375,397.490112 
	C400.484375,397.490112 400.575623,397.395020 401.130554,396.552124 
	C401.159760,391.709717 401.188995,386.867310 401.374664,381.095093 
	C401.379730,330.180237 401.387543,279.265350 401.372681,228.350494 
	C401.372345,227.197845 401.114685,226.045258 400.895691,224.226959 
	C399.514893,222.814529 398.242584,221.272995 396.737396,220.008667 
	C364.408020,192.852692 332.063599,165.714661 299.697327,138.602676 
	C285.171051,126.434586 270.585999,114.336662 256.041565,102.190247 
	C254.092361,100.562408 252.270935,98.984726 252.107117,104.219261 
	C251.733795,143.685120 251.360474,183.150970 250.979324,223.444855 
	C248.992233,222.250015 248.033875,221.673752 246.946487,220.829208 
	C246.946487,220.829208 246.694550,220.670609 246.686447,220.486618 
	C246.686447,220.486618 246.374695,220.350754 246.044571,219.954941 
	C245.902481,219.858368 245.760391,219.761810 245.642105,219.524979 
	C245.642105,219.524979 245.406250,219.459198 244.936081,218.887177 
	C198.015823,179.407257 151.095581,139.927338 104.175331,100.447418 
	C103.529083,100.683662 102.882828,100.919907 102.236580,101.156151 
	C101.666351,115.091919 101.639633,129.046692 101.949371,143.881226 
	C101.989899,145.915939 102.030426,147.950668 101.904854,150.912857 
	C101.864822,190.235779 101.860535,229.558823 101.724556,268.881409 
	C101.712166,272.464142 103.490318,274.382904 106.554626,276.392761 
	C107.040977,276.619659 107.527336,276.846527 107.876900,277.024353 
	C107.876900,277.024353 107.827797,277.161133 108.126488,277.751282 
	C117.409180,285.504059 126.691872,293.256836 135.986984,301.015839 
	C135.986984,301.015839 135.995056,301.027893 136.288742,301.625183 
	C140.279907,304.736694 144.271072,307.848206 148.548035,311.206665 
	C148.730591,311.380280 148.907227,311.559692 149.272400,312.425201 
	C153.173752,315.620850 157.075104,318.816498 160.992340,322.008972 
	C160.992340,322.008972 160.991699,322.025238 161.290573,322.620544 
	C166.581833,327.057800 171.873093,331.495056 177.556122,336.440918 
	C180.692108,339.028168 183.828079,341.615417 187.097733,344.582916 
	C187.262665,344.814240 187.484833,344.955688 188.139923,345.590881 
	C191.746262,348.396332 195.352600,351.201752 198.963394,354.045471 
	C198.963394,354.045471 199.001556,354.040161 199.321945,354.619171 
	C207.202728,361.095978 215.083511,367.572784 223.006180,374.019836 
	C223.006180,374.019836 222.956802,374.015961 223.124115,374.498199 
	C223.405670,374.673309 223.687241,374.848450 223.989105,375.017975 
	C223.989105,375.017975 223.980240,375.043793 224.259583,375.648956 
	C230.491730,380.764099 236.723877,385.879242 242.952713,391.048523 
	C242.952713,391.048523 243.006561,391.042328 243.162811,391.485077 
	C243.354660,391.759186 243.616806,391.915161 243.967468,392.041718 
	C243.967468,392.041718 244.056305,392.024078 244.397308,392.563446 
	C246.132751,393.988281 247.868195,395.413116 250.422379,397.510193 
	C250.422379,392.686279 250.422379,388.974487 250.551575,384.528198 
	C250.490906,384.037323 250.430237,383.546417 250.571564,382.127808 
	C250.735641,348.563599 250.882736,314.999268 251.096756,281.435394 
	C251.113525,278.807953 251.597580,276.183441 252.495010,273.767151 
	C252.915253,273.906097 253.335495,274.045044 254.035995,274.586578 
	C254.278961,274.835632 254.574326,274.968628 254.923325,275.087250 
	C254.923325,275.087250 255.025085,275.086945 255.099991,275.411102 
	C255.219772,275.621887 255.400665,275.723328 255.985947,276.037354 
	C255.985947,276.037354 256.416565,276.227234 256.659119,276.634583 
	C257.104340,276.778839 257.549591,276.923065 257.996979,277.006195 
	C257.996979,277.006195 257.939606,277.027405 258.082306,277.552032 
	C258.399170,277.695282 258.716003,277.838531 259.371857,278.325134 
	C259.592651,278.559692 259.826660,278.780243 260.145874,279.462372 
	C260.312805,279.769989 260.570404,279.941132 260.919220,280.081696 
	C260.919220,280.081696 261.025085,280.082031 261.205750,280.603851 
	C261.801300,280.990479 262.396881,281.377106 263.408539,281.941956 
	C263.408539,281.941956 263.858856,281.987579 264.137177,282.598022 
	C265.391418,283.760651 266.645691,284.923309 268.279541,286.630798 
	C271.011597,288.903076 273.743683,291.175385 276.876587,293.980774 
	C281.878906,298.024567 286.881195,302.068329 292.114288,306.544098 
	C292.326202,306.810059 292.596466,306.986755 293.276123,307.640350 
	C297.147797,310.804718 301.019470,313.969086 305.238617,317.697540 
	C308.035797,319.916656 310.832947,322.135742 313.967346,324.900909 
	C315.278107,325.968811 316.588837,327.036713 318.133514,328.531891 
	C318.338593,328.801971 318.605286,328.979553 319.193970,329.476471 
z"/>
<path fill="#F9B711" opacity="1.000000" stroke="none" 
	d="
M187.764236,345.007202 
	C187.484833,344.955688 187.262665,344.814240 186.931396,344.056152 
	C183.874802,340.658661 180.984543,337.787903 177.868286,334.677979 
	C172.092087,330.300964 166.541885,326.163086 160.991699,322.025238 
	C160.991699,322.025238 160.992340,322.008972 160.878540,321.678589 
	C158.861145,315.722900 153.872360,313.852203 149.077942,311.744934 
	C148.907227,311.559692 148.730591,311.380280 148.246094,310.774506 
	C147.228149,308.923859 146.512161,307.505371 146.084595,306.159546 
	C147.417816,306.427338 148.462601,306.622498 150.294937,306.964783 
	C148.901657,304.866302 147.952377,303.436554 147.312042,302.057556 
	C149.384323,302.108337 151.147629,302.108337 152.033356,302.108337 
	C153.234100,304.571289 153.647461,306.695221 154.933945,307.824341 
	C159.193237,311.562622 164.160095,313.712921 169.991531,312.231140 
	C171.264267,311.907715 173.185226,311.054016 173.352051,310.169891 
	C173.613007,308.786896 173.106598,306.577484 172.089050,305.763702 
	C169.133652,303.400085 166.001022,300.549500 162.504166,299.721222 
	C155.546967,298.073334 151.966034,292.816895 147.729904,288.144501 
	C144.334625,284.399567 140.390076,281.897858 134.883530,280.724152 
	C135.326660,286.390472 136.101456,290.825531 140.303329,294.262726 
	C142.902863,296.389160 144.787262,299.389832 146.687347,301.948669 
	C144.886475,302.308807 143.390915,302.718353 141.594666,302.952454 
	C139.527664,302.193939 137.761353,301.610931 135.995056,301.027893 
	C135.995056,301.027893 135.986984,301.015839 135.870590,300.692535 
	C126.849640,292.574615 117.945076,284.780029 108.974747,276.647278 
	C108.601479,275.203491 108.293976,274.097839 108.422531,272.995117 
	C116.343208,272.357086 122.064674,276.071960 127.606171,282.251160 
	C127.606171,276.923889 127.283699,273.270996 127.677719,269.697113 
	C128.359818,263.510345 127.005135,261.529541 121.029060,259.404572 
	C118.841896,258.626831 115.598778,256.478912 115.559410,254.888672 
	C115.472794,251.391098 116.503799,247.508163 118.220535,244.416641 
	C120.241310,240.777588 123.746880,237.995499 126.098656,234.498825 
	C128.531464,230.881622 127.294113,228.173294 123.407066,226.039444 
	C121.820610,225.168533 119.440010,223.422806 119.525299,222.224945 
	C119.920387,216.676468 118.658432,211.828735 115.541237,207.284897 
	C114.957054,206.433334 115.159492,205.024765 115.049026,203.868454 
	C114.450226,197.600494 113.456367,191.334625 113.401619,185.061020 
	C113.353104,179.502792 114.358955,173.935791 114.891350,168.371902 
	C115.189919,165.251648 115.498596,162.132004 115.756126,159.008255 
	C116.217270,153.414597 116.610130,147.815155 117.093109,142.223450 
	C117.586792,136.507645 120.825661,133.665436 126.312668,132.005035 
	C130.783569,130.652130 132.591782,131.585480 132.644669,135.924744 
	C131.305115,135.720459 130.306366,135.428238 129.327530,135.484253 
	C126.366310,135.653671 122.674980,134.187653 121.469391,138.674927 
	C120.202881,143.388931 121.978561,146.780533 125.684227,149.462631 
	C127.203125,150.561996 128.110687,153.463531 128.100815,155.539581 
	C128.070053,162.000137 127.368767,168.454285 127.125671,174.918365 
	C126.995644,178.376007 128.894424,180.367432 131.859390,182.392059 
	C135.064957,184.581009 138.773117,187.966873 139.509933,191.418213 
	C140.862244,197.752625 139.952011,204.537613 140.476166,211.095490 
	C140.724075,214.196915 141.140045,218.496338 143.160583,220.011047 
	C148.607544,224.094482 152.044693,229.121445 154.708847,235.195694 
	C155.601379,237.230698 158.191406,238.951141 160.398987,239.868088 
	C163.022827,240.957901 166.624588,241.126450 166.012756,244.759308 
	C165.780716,246.137146 162.424515,247.521805 160.305115,247.928864 
	C156.770187,248.607773 154.196472,249.728195 154.272644,253.796021 
	C154.345474,257.685974 156.874146,258.997192 160.261734,258.939728 
	C165.750854,258.846588 168.194855,261.482208 168.046768,266.879547 
	C167.943176,270.653900 169.689011,272.931335 173.667480,272.952972 
	C178.337585,272.978394 180.825882,275.235657 180.947144,279.920563 
	C181.053345,284.023468 183.139297,285.696686 187.178894,286.088776 
	C193.455032,286.697906 196.709732,293.679504 192.222443,297.969604 
	C187.388550,302.591034 189.559662,304.846985 193.542007,307.284241 
	C195.583298,308.533539 197.946976,309.659760 200.275681,309.948486 
	C204.607285,310.485626 206.679443,312.284943 207.180618,316.842316 
	C207.477127,319.538544 209.055939,322.412262 210.837509,324.559509 
	C214.395309,328.847595 219.187256,332.235535 222.185715,336.832611 
	C225.927200,342.568848 230.410675,344.804016 237.057343,344.277985 
	C238.580780,344.157410 240.364487,346.322449 241.892853,347.597992 
	C243.025665,348.543457 243.938873,349.752014 244.949905,350.843384 
	C245.425583,349.385559 246.368805,347.905426 246.300476,346.473572 
	C245.881638,337.695679 244.971832,328.934967 244.762451,320.155731 
	C244.640823,315.056580 245.655441,309.940002 245.901611,304.818909 
	C246.053696,301.655487 245.401031,298.837585 241.312164,298.322693 
	C240.306000,298.195984 238.916290,296.907043 238.638870,295.895691 
	C237.039719,290.065887 241.984955,284.956818 248.024597,286.394958 
	C248.031982,287.859100 248.033066,288.923950 247.797089,290.239746 
	C245.370377,293.509796 245.873856,296.008240 249.015350,298.461304 
	C249.308838,306.073578 249.878021,313.223724 249.833176,320.370056 
	C249.718292,338.678314 249.274292,356.984436 249.115555,375.292725 
	C249.093140,377.876526 249.930267,380.467743 250.369568,383.055542 
	C250.430237,383.546417 250.490906,384.037323 250.416412,385.238464 
	C250.044540,389.857330 249.546692,393.498444 244.056305,392.024078 
	C244.056305,392.024078 243.967468,392.041718 243.823410,391.824066 
	C243.481155,391.387299 243.256882,391.199280 243.006561,391.042328 
	C243.006561,391.042328 242.952713,391.048523 242.845764,390.700806 
	C238.195847,383.154846 231.592468,378.481262 223.980240,375.043793 
	C223.980240,375.043793 223.989105,375.017975 223.829254,374.834564 
	C223.454224,374.414368 223.216675,374.202637 222.956802,374.015961 
	C222.956802,374.015961 223.006180,374.019836 222.867859,373.714661 
	C218.001190,368.894928 213.447311,364.175293 208.476425,359.945801 
	C205.672836,357.560364 202.182510,355.982056 199.001556,354.040161 
	C199.001556,354.040161 198.963394,354.045471 198.882614,353.676636 
	C197.344025,347.587067 192.442947,346.444977 187.764236,345.007202 
z"/>
<path fill="#F6B811" opacity="1.000000" stroke="none" 
	d="
M132.994568,135.996002 
	C132.591782,131.585480 130.783569,130.652130 126.312668,132.005035 
	C120.825661,133.665436 117.586792,136.507645 117.093109,142.223450 
	C116.610130,147.815155 116.217270,153.414597 115.756126,159.008255 
	C115.498596,162.132004 115.189919,165.251648 114.891350,168.371902 
	C114.358955,173.935791 113.353104,179.502792 113.401619,185.061020 
	C113.456367,191.334625 114.450226,197.600494 115.049026,203.868454 
	C115.159492,205.024765 114.957054,206.433334 115.541237,207.284897 
	C118.658432,211.828735 119.920387,216.676468 119.525299,222.224945 
	C119.440010,223.422806 121.820610,225.168533 123.407066,226.039444 
	C127.294113,228.173294 128.531464,230.881622 126.098656,234.498825 
	C123.746880,237.995499 120.241310,240.777588 118.220535,244.416641 
	C116.503799,247.508163 115.472794,251.391098 115.559410,254.888672 
	C115.598778,256.478912 118.841896,258.626831 121.029060,259.404572 
	C127.005135,261.529541 128.359818,263.510345 127.677719,269.697113 
	C127.283699,273.270996 127.606171,276.923889 127.606171,282.251160 
	C122.064674,276.071960 116.343208,272.357086 108.359337,272.599609 
	C106.904747,262.157135 105.454201,252.129807 105.113541,242.064911 
	C104.637184,227.990952 104.989761,213.888977 104.985428,199.798981 
	C104.982315,189.665100 105.320900,179.514999 104.846252,169.403152 
	C104.541061,162.901474 103.037430,156.456024 102.070961,149.985382 
	C102.030426,147.950668 101.989899,145.915939 102.253998,143.163391 
	C103.063583,138.069748 103.209778,133.609497 104.212532,129.350906 
	C104.783722,126.925102 106.411324,123.314293 108.168915,122.917053 
	C111.281075,122.213692 114.589859,123.000145 116.782341,119.640205 
	C116.993690,119.316315 119.325340,120.067101 120.447998,120.710876 
	C122.808525,122.064468 125.002457,123.705391 127.297089,125.178001 
	C129.513275,126.600266 132.814377,127.448944 133.792984,129.451584 
	C135.869232,133.700592 139.394333,135.761978 142.637894,138.012741 
	C138.979233,138.156555 135.300919,140.155869 132.994568,135.996002 
z"/>
<path fill="#E9B411" opacity="1.000000" stroke="none" 
	d="
M143.040817,137.971161 
	C139.394333,135.761978 135.869232,133.700592 133.792984,129.451584 
	C132.814377,127.448944 129.513275,126.600266 127.297089,125.178001 
	C125.002457,123.705391 122.808525,122.064468 120.447998,120.710876 
	C119.325340,120.067101 116.993690,119.316315 116.782341,119.640205 
	C114.589859,123.000145 111.281075,122.213692 108.168915,122.917053 
	C106.411324,123.314293 104.783722,126.925102 104.212532,129.350906 
	C103.209778,133.609497 103.063583,138.069748 102.321442,142.731735 
	C101.639633,129.046692 101.666351,115.091919 102.236580,101.156151 
	C102.882828,100.919907 103.529083,100.683662 104.175331,100.447418 
	C151.095581,139.927338 198.015823,179.407257 245.199402,219.209305 
	C245.462708,219.531433 245.618301,219.665237 245.618301,219.665237 
	C245.760391,219.761810 245.902481,219.858368 246.258408,220.206116 
	C246.472244,220.457291 246.694550,220.670609 246.694550,220.670609 
	C246.694550,220.670609 246.946487,220.829208 247.032593,221.313797 
	C247.417191,223.166901 247.715652,224.535416 247.732483,225.973312 
	C246.137436,225.026672 244.643692,224.173111 243.549942,222.959152 
	C241.571075,220.762817 239.830917,218.351410 237.624695,216.010284 
	C236.524963,215.963333 235.791641,215.935867 234.932144,215.589172 
	C231.872711,212.852783 228.939453,210.435638 225.817749,207.743073 
	C218.560349,201.855270 211.451721,196.291748 204.445435,190.602203 
	C202.201111,188.779663 200.344177,186.479767 198.098160,184.659698 
	C195.727585,182.738678 193.324066,180.421860 190.537766,179.555878 
	C186.667892,178.353119 184.187103,176.495224 182.775635,172.675827 
	C182.150986,170.985519 180.659546,169.435883 179.203247,168.269989 
	C176.175278,165.845917 172.237885,164.255402 169.908813,161.337036 
	C166.981171,157.668625 164.395874,154.387405 159.286469,154.202393 
	C158.530426,154.175034 157.765945,153.066544 157.089142,152.376144 
	C152.393951,147.586624 147.720947,142.775421 143.040817,137.971161 
z"/>
<path fill="#E1B016" opacity="1.000000" stroke="none" 
	d="
M252.242416,103.370880 
	C252.270935,98.984726 254.092361,100.562408 256.041565,102.190247 
	C270.585999,114.336662 285.171051,126.434586 299.697327,138.602676 
	C332.063599,165.714661 364.408020,192.852692 396.737396,220.008667 
	C398.242584,221.272995 399.514893,222.814529 400.801575,224.822845 
	C400.455322,225.949615 400.203186,226.480530 399.684326,226.824280 
	C389.984406,218.731018 380.551270,210.824936 370.886780,202.677155 
	C364.034851,197.268951 359.186188,189.400146 349.649200,188.448547 
	C349.369934,181.853928 342.456909,174.905457 337.872803,176.690384 
	C335.469025,174.156647 333.577576,172.088120 331.600708,170.104660 
	C330.215027,168.714371 328.690704,167.463455 327.266693,166.109924 
	C322.140106,161.237045 317.940826,155.074020 310.037781,153.617599 
	C309.257690,152.570557 308.618134,151.793732 307.674316,150.874878 
	C305.914032,149.157501 304.457977,147.582153 302.842041,145.713257 
	C298.909790,141.474503 295.402374,137.048248 288.791077,137.707642 
	C288.095734,137.007294 287.606842,136.482376 287.171692,135.660492 
	C285.851440,133.254044 284.806030,130.802109 283.036804,129.104538 
	C279.044556,125.274017 274.804565,121.677162 270.461578,118.242981 
	C265.206818,114.087822 260.669464,108.580612 253.133942,107.911484 
	C252.810867,106.153374 252.526642,104.762123 252.242416,103.370880 
z"/>
<path fill="#E9B411" opacity="1.000000" stroke="none" 
	d="
M101.987907,150.449127 
	C103.037430,156.456024 104.541061,162.901474 104.846252,169.403152 
	C105.320900,179.514999 104.982315,189.665100 104.985428,199.798981 
	C104.989761,213.888977 104.637184,227.990952 105.113541,242.064911 
	C105.454201,252.129807 106.904747,262.157135 107.923264,272.596741 
	C108.293976,274.097839 108.601479,275.203491 108.671066,276.689270 
	C108.231369,277.099976 108.029587,277.130554 107.827797,277.161133 
	C107.827797,277.161133 107.876900,277.024353 107.735138,276.887817 
	C107.140411,276.481354 106.687454,276.211395 106.234489,275.941437 
	C103.490318,274.382904 101.712166,272.464142 101.724556,268.881409 
	C101.860535,229.558823 101.864822,190.235779 101.987907,150.449127 
z"/>
<path fill="#F0B519" opacity="1.000000" stroke="none" 
	d="
M252.174774,103.795074 
	C252.526642,104.762123 252.810867,106.153374 253.198959,108.266174 
	C253.865341,115.859489 254.897583,122.731567 254.893173,129.602966 
	C254.883804,144.184189 254.114502,158.764526 254.076691,173.346298 
	C254.046768,184.881042 254.643188,196.417419 254.739960,208.259430 
	C254.040176,213.043518 253.561890,217.521210 252.934235,222.301651 
	C251.194611,223.704239 249.604355,224.804077 248.014099,225.903931 
	C247.715652,224.535416 247.417191,223.166901 247.097107,221.447937 
	C248.033875,221.673752 248.992233,222.250015 250.979324,223.444855 
	C251.360474,183.150970 251.733795,143.685120 252.174774,103.795074 
z"/>
<path fill="#F1B524" opacity="1.000000" stroke="none" 
	d="
M248.034134,289.988831 
	C248.033066,288.923950 248.031982,287.859100 248.032928,286.161377 
	C248.034927,285.528503 248.047867,285.061066 248.247711,284.844666 
	C249.309509,280.709808 250.171478,276.791351 251.179291,272.977753 
	C251.516983,273.227234 251.696762,273.385559 251.864471,273.557587 
	C251.597580,276.183441 251.113525,278.807953 251.096756,281.435394 
	C250.882736,314.999268 250.735641,348.563599 250.470566,382.591675 
	C249.930267,380.467743 249.093140,377.876526 249.115555,375.292725 
	C249.274292,356.984436 249.718292,338.678314 249.833176,320.370056 
	C249.878021,313.223724 249.308838,306.073578 248.960358,298.065308 
	C248.612289,294.799927 248.323212,292.394379 248.034134,289.988831 
z"/>
<path fill="#F1B524" opacity="1.000000" stroke="none" 
	d="
M399.951080,227.011429 
	C400.203186,226.480530 400.455322,225.949615 400.842224,225.155670 
	C401.114685,226.045258 401.372345,227.197845 401.372681,228.350494 
	C401.387543,279.265350 401.379730,330.180237 401.036865,381.566467 
	C400.526093,382.043579 400.353088,382.049316 400.140594,381.671570 
	C400.048767,380.520996 399.996368,379.753967 399.951141,378.519104 
	C399.951508,329.034943 399.944733,280.018585 399.949890,230.602951 
	C399.958252,229.139603 399.954651,228.075516 399.951080,227.011429 
z"/>
<path fill="#FAB90E" opacity="1.000000" stroke="none" 
	d="
M252.179749,273.662354 
	C251.696762,273.385559 251.516983,273.227234 251.094788,272.637329 
	C250.268280,269.442322 250.059769,266.305908 253.574692,266.121918 
	C255.014420,266.046570 256.702698,268.921936 258.117249,270.591095 
	C260.154602,272.995178 262.045410,275.523499 263.999390,277.999390 
	C264.000000,278.000000 264.001221,278.001221 264.006714,278.375641 
	C264.039825,279.737854 264.067474,280.725616 264.032440,281.778839 
	C263.969757,281.844269 263.858856,281.987579 263.858856,281.987579 
	C263.858856,281.987579 263.408539,281.941956 263.034668,281.652100 
	C262.115540,280.935547 261.570312,280.508789 261.025085,280.082031 
	C261.025085,280.082031 260.919220,280.081696 260.786255,279.857666 
	C260.469452,279.409637 260.276306,279.194031 260.073822,278.986816 
	C259.826660,278.780243 259.592651,278.559692 259.024658,277.988159 
	C258.438599,277.434875 258.192627,277.226959 257.939606,277.027405 
	C257.939606,277.027405 257.996979,277.006195 257.803955,276.911530 
	C257.212830,276.620331 256.814697,276.423767 256.416565,276.227234 
	C256.416565,276.227234 255.985947,276.037354 255.724823,275.764954 
	C255.327148,275.346954 255.180939,275.211731 255.025085,275.086945 
	C255.025085,275.086945 254.923325,275.087250 254.731659,274.894531 
	C254.285370,274.518890 254.023941,274.346313 253.755722,274.184021 
	C253.335495,274.045044 252.915253,273.906097 252.179749,273.662354 
z"/>
<path fill="#E4B024" opacity="1.000000" stroke="none" 
	d="
M107.977142,277.456207 
	C108.029587,277.130554 108.231369,277.099976 108.736839,277.027405 
	C117.945076,284.780029 126.849640,292.574615 135.864380,300.689423 
	C126.691872,293.256836 117.409180,285.504059 107.977142,277.456207 
z"/>
<path fill="#FAB90E" opacity="1.000000" stroke="none" 
	d="
M333.517273,341.033447 
	C333.517273,341.033447 333.466339,341.044891 333.339661,340.671997 
	C331.085510,337.840210 328.957977,335.381348 327.016388,332.716614 
	C327.460052,331.368835 327.717804,330.226959 327.855713,328.850037 
	C327.646271,327.836273 327.556671,327.057495 327.467072,326.278748 
	C328.698334,326.832458 330.545593,327.052673 331.056458,327.996338 
	C333.540924,332.585724 335.667633,337.368774 337.555786,341.988586 
	C335.966156,341.607117 334.741699,341.320282 333.517273,341.033447 
z"/>
<path fill="#E4B024" opacity="1.000000" stroke="none" 
	d="
M379.874481,380.147369 
	C371.661041,373.329865 363.447571,366.512329 355.167023,359.290894 
	C355.099915,358.886993 355.340027,358.627502 355.652893,358.765930 
	C359.949341,361.660095 363.932892,364.415833 368.099670,367.371338 
	C368.800110,368.076874 369.317352,368.582642 370.049072,369.348846 
	C373.652557,372.926605 377.041534,376.243896 380.291443,379.707642 
	C380.152374,379.854126 379.874481,380.147369 379.874481,380.147369 
z"/>
<path fill="#E4B024" opacity="1.000000" stroke="none" 
	d="
M400.180054,382.055084 
	C400.353088,382.049316 400.526093,382.043579 400.958618,382.031372 
	C401.188995,386.867310 401.159760,391.709717 400.830475,396.971161 
	C400.530396,397.390198 400.491089,397.414764 400.491089,397.414764 
	C393.734650,391.847992 386.978241,386.281250 380.048157,380.430908 
	C379.874481,380.147369 380.152374,379.854126 380.586517,379.860931 
	C383.009552,380.951904 384.998444,382.036072 387.134399,383.276001 
	C387.479614,383.637787 387.680664,383.840851 388.135864,384.263733 
	C391.632019,387.365265 394.876984,390.244080 398.121918,393.122894 
	C398.599365,392.933411 399.076813,392.743927 399.554260,392.554443 
	C399.762878,389.054657 399.971466,385.554871 400.180054,382.055084 
z"/>
<path fill="#F1B524" opacity="1.000000" stroke="none" 
	d="
M199.161743,354.329651 
	C202.182510,355.982056 205.672836,357.560364 208.476425,359.945801 
	C213.447311,364.175293 218.001190,368.894928 222.846924,373.729553 
	C215.083511,367.572784 207.202728,361.095978 199.161743,354.329651 
z"/>
<path fill="#E4B024" opacity="1.000000" stroke="none" 
	d="
M333.695618,341.338745 
	C334.741699,341.320282 335.966156,341.607117 337.570679,341.980499 
	C337.950775,342.067047 337.968292,342.048950 338.149292,342.307281 
	C339.548279,343.723511 340.766235,344.881378 342.215759,346.232727 
	C343.283234,346.983856 344.119141,347.541504 345.116669,348.256653 
	C345.495056,348.622772 345.714417,348.828705 346.155670,349.275513 
	C348.229980,351.053772 350.084900,352.588440 352.128693,354.372803 
	C353.325043,355.957489 354.332550,357.292480 355.340027,358.627502 
	C355.340027,358.627502 355.099915,358.886993 354.979736,359.016602 
	C347.864349,353.312164 340.869171,347.478088 333.695618,341.338745 
z"/>
<path fill="#F1B524" opacity="1.000000" stroke="none" 
	d="
M224.119904,375.346375 
	C231.592468,378.481262 238.195847,383.154846 242.847412,390.673767 
	C236.723877,385.879242 230.491730,380.764099 224.119904,375.346375 
z"/>
<path fill="#EDB320" opacity="1.000000" stroke="none" 
	d="
M291.883514,306.112122 
	C286.881195,302.068329 281.878906,298.024567 276.851532,293.571411 
	C276.826477,293.162048 277.173859,292.872345 277.464996,293.019409 
	C279.489532,294.121063 281.222900,295.075592 283.168518,296.287048 
	C286.334991,299.346252 289.289246,302.148560 292.274719,305.158386 
	C292.305939,305.365845 292.380127,305.778809 292.255249,305.861053 
	C292.130371,305.943298 291.883514,306.112122 291.883514,306.112122 
z"/>
<path fill="#E4B024" opacity="1.000000" stroke="none" 
	d="
M161.141144,322.322876 
	C166.541885,326.163086 172.092087,330.300964 177.708557,334.844421 
	C177.567429,335.473938 177.363937,335.701385 177.164368,335.932312 
	C171.873093,331.495056 166.581833,327.057800 161.141144,322.322876 
z"/>
<path fill="#EDB320" opacity="1.000000" stroke="none" 
	d="
M304.891144,317.133453 
	C301.019470,313.969086 297.147797,310.804718 293.176025,307.251099 
	C293.075928,306.861847 293.223572,306.647156 293.569489,306.765381 
	C296.932159,308.930176 299.948883,310.976807 303.134674,313.282532 
	C303.977509,314.562195 304.651306,315.582672 305.216553,316.735718 
	C305.108032,316.868256 304.891144,317.133453 304.891144,317.133453 
z"/>
<path fill="#E4B024" opacity="1.000000" stroke="none" 
	d="
M149.175171,312.085083 
	C153.872360,313.852203 158.861145,315.722900 160.870605,321.680145 
	C157.075104,318.816498 153.173752,315.620850 149.175171,312.085083 
z"/>
<path fill="#E4B024" opacity="1.000000" stroke="none" 
	d="
M145.796173,306.086884 
	C146.512161,307.505371 147.228149,308.923859 148.103180,310.651062 
	C144.271072,307.848206 140.279907,304.736694 136.141907,301.326538 
	C137.761353,301.610931 139.527664,302.193939 141.807083,303.181793 
	C143.478851,304.420044 144.637512,305.253448 145.796173,306.086884 
z"/>
<path fill="#F1B524" opacity="1.000000" stroke="none" 
	d="
M187.952087,345.299042 
	C192.442947,346.444977 197.344025,347.587067 198.880371,353.657471 
	C195.352600,351.201752 191.746262,348.396332 187.952087,345.299042 
z"/>
<path fill="#EDB320" opacity="1.000000" stroke="none" 
	d="
M276.651123,293.304871 
	C273.743683,291.175385 271.011597,288.903076 268.194031,286.246368 
	C268.108551,285.861938 268.316345,285.637207 268.623688,285.769897 
	C271.297699,286.635468 273.664337,287.368317 276.347534,288.146210 
	C277.735809,288.772705 278.807617,289.354187 279.599701,290.057190 
	C278.604614,291.076630 277.889221,291.974487 277.173828,292.872345 
	C277.173859,292.872345 276.826477,293.162048 276.651123,293.304871 
z"/>
<path fill="#E4B024" opacity="1.000000" stroke="none" 
	d="
M326.830475,332.922485 
	C328.957977,335.381348 331.085510,337.840210 333.337769,340.645935 
	C329.665955,337.956543 325.869354,334.920258 321.990234,331.496704 
	C321.907745,331.109436 322.126099,330.871216 322.355103,330.892517 
	C322.584137,330.913788 323.044983,330.943939 323.412506,330.996277 
	C324.517090,331.137573 325.254181,331.226501 326.090332,331.517761 
	C326.403107,332.120880 326.616791,332.521667 326.830475,332.922485 
z"/>
<path fill="#F1B524" opacity="1.000000" stroke="none" 
	d="
M244.226807,392.293762 
	C249.546692,393.498444 250.044540,389.857330 250.351822,385.605713 
	C250.422379,388.974487 250.422379,392.686279 250.422379,397.510193 
	C247.868195,395.413116 246.132751,393.988281 244.226807,392.293762 
z"/>
<path fill="#F1B524" opacity="1.000000" stroke="none" 
	d="
M177.360229,336.186615 
	C177.363937,335.701385 177.567429,335.473938 177.934540,335.083557 
	C180.984543,337.787903 183.874802,340.658661 186.864563,343.866028 
	C183.828079,341.615417 180.692108,339.028168 177.360229,336.186615 
z"/>
<path fill="#EDB320" opacity="1.000000" stroke="none" 
	d="
M313.630127,324.354858 
	C310.832947,322.135742 308.035797,319.916656 305.064880,317.415497 
	C304.891144,317.133453 305.108032,316.868256 305.495850,316.797455 
	C306.262054,316.792694 306.640442,316.858704 307.288696,317.124512 
	C309.760468,319.408783 311.962372,321.493317 314.028809,323.770752 
	C313.893341,323.963684 313.630127,324.354858 313.630127,324.354858 
z"/>
<path fill="#E4B024" opacity="1.000000" stroke="none" 
	d="
M317.899597,328.104614 
	C316.588837,327.036713 315.278107,325.968811 313.798737,324.627869 
	C313.630127,324.354858 313.893341,323.963684 314.305237,323.965546 
	C315.945679,325.210693 317.174255,326.453979 318.276367,327.798309 
	C318.149933,327.899353 317.899597,328.104614 317.899597,328.104614 
z"/>
<path fill="#EDB320" opacity="1.000000" stroke="none" 
	d="
M268.004242,285.973938 
	C266.645691,284.923309 265.391418,283.760651 263.998016,282.292786 
	C263.858856,281.987579 263.969757,281.844269 264.303833,281.967529 
	C265.864044,283.272919 267.090179,284.455048 268.316345,285.637207 
	C268.316345,285.637207 268.108551,285.861938 268.004242,285.973938 
z"/>
<path fill="#F9B711" opacity="1.000000" stroke="none" 
	d="
M261.115417,280.342957 
	C261.570312,280.508789 262.115540,280.935547 262.826599,281.562988 
	C262.396881,281.377106 261.801300,280.990479 261.115417,280.342957 
z"/>
<path fill="#F9B711" opacity="1.000000" stroke="none" 
	d="
M256.537842,276.430908 
	C256.814697,276.423767 257.212830,276.620331 257.802887,276.942078 
	C257.549591,276.923065 257.104340,276.778839 256.537842,276.430908 
z"/>
<path fill="#E4B024" opacity="1.000000" stroke="none" 
	d="
M106.394562,276.167114 
	C106.687454,276.211395 107.140411,276.481354 107.803528,276.912354 
	C107.527336,276.846527 107.040977,276.619659 106.394562,276.167114 
z"/>
<path fill="#E4B024" opacity="1.000000" stroke="none" 
	d="
M321.799011,331.228943 
	C321.230743,331.047852 320.771271,330.747223 320.300842,330.083374 
	C320.289917,329.720154 320.558868,329.465546 320.796448,329.558319 
	C321.360107,329.759308 321.686188,329.867523 322.038696,330.199860 
	C322.065125,330.423981 322.126099,330.871216 322.126099,330.871216 
	C322.126099,330.871216 321.907745,331.109436 321.799011,331.228943 
z"/>
<path fill="#EDB320" opacity="1.000000" stroke="none" 
	d="
M293.000488,306.968048 
	C292.596466,306.986755 292.326202,306.810059 291.998901,306.328125 
	C291.883514,306.112122 292.130371,305.943298 292.390320,306.010132 
	C292.837463,306.271027 293.028564,306.461060 293.223572,306.647156 
	C293.223572,306.647156 293.075928,306.861847 293.000488,306.968048 
z"/>
<path fill="#F9B711" opacity="1.000000" stroke="none" 
	d="
M258.010956,277.289734 
	C258.192627,277.226959 258.438599,277.434875 258.855164,277.816467 
	C258.716003,277.838531 258.399170,277.695282 258.010956,277.289734 
z"/>
<path fill="#F9B711" opacity="1.000000" stroke="none" 
	d="
M255.062531,275.249023 
	C255.180939,275.211731 255.327148,275.346954 255.553192,275.603973 
	C255.400665,275.723328 255.219772,275.621887 255.062531,275.249023 
z"/>
<path fill="#F9B711" opacity="1.000000" stroke="none" 
	d="
M253.895859,274.385315 
	C254.023941,274.346313 254.285370,274.518890 254.731049,274.843628 
	C254.574326,274.968628 254.278961,274.835632 253.895859,274.385315 
z"/>
<path fill="#F9B711" opacity="1.000000" stroke="none" 
	d="
M260.109863,279.224609 
	C260.276306,279.194031 260.469452,279.409637 260.785950,279.804688 
	C260.570404,279.941132 260.312805,279.769989 260.109863,279.224609 
z"/>
<path fill="#F0B519" opacity="1.000000" stroke="none" 
	d="
M246.690491,220.578613 
	C246.694550,220.670609 246.472244,220.457291 246.423462,220.404022 
	C246.374695,220.350754 246.686447,220.486618 246.690491,220.578613 
z"/>
<path fill="#F1B524" opacity="1.000000" stroke="none" 
	d="
M223.040466,374.257080 
	C223.216675,374.202637 223.454224,374.414368 223.819107,374.837341 
	C223.687241,374.848450 223.405670,374.673309 223.040466,374.257080 
z"/>
<path fill="#F0B519" opacity="1.000000" stroke="none" 
	d="
M245.630203,219.595108 
	C245.618301,219.665237 245.462708,219.531433 245.434479,219.495316 
	C245.406250,219.459198 245.642105,219.524979 245.630203,219.595108 
z"/>
<path fill="#E4B024" opacity="1.000000" stroke="none" 
	d="
M320.154907,329.846863 
	C319.697662,329.885864 319.422363,329.720154 319.165222,329.111816 
	C319.136475,328.747131 319.334717,328.426636 319.535034,328.454254 
	C319.735352,328.481873 320.141815,328.509125 320.245789,328.748352 
	C320.419434,329.146912 320.489136,329.306213 320.558868,329.465546 
	C320.558868,329.465546 320.289917,329.720154 320.154907,329.846863 
z"/>
<path fill="#E4B024" opacity="1.000000" stroke="none" 
	d="
M319.035004,328.905914 
	C318.605286,328.979553 318.338593,328.801971 318.016541,328.318237 
	C317.899597,328.104614 318.149933,327.899353 318.427063,327.925354 
	C318.909760,328.115936 319.119934,328.274353 319.334717,328.426636 
	C319.334717,328.426636 319.136475,328.747131 319.035004,328.905914 
z"/>
<path fill="#F1B524" opacity="1.000000" stroke="none" 
	d="
M243.084686,391.263702 
	C243.256882,391.199280 243.481155,391.387299 243.814301,391.779724 
	C243.616806,391.915161 243.354660,391.759186 243.084686,391.263702 
z"/>
<path fill="#E1B016" opacity="1.000000" stroke="none" 
	d="
M400.487732,397.452454 
	C400.491089,397.414764 400.530396,397.390198 400.553009,397.392609 
	C400.575623,397.395020 400.484375,397.490112 400.487732,397.452454 
z"/>
<path fill="#FBB913" opacity="1.000000" stroke="none" 
	d="
M248.047867,285.061066 
	C248.047867,285.061066 248.034927,285.528503 248.026611,285.762085 
	C241.984955,284.956818 237.039719,290.065887 238.638870,295.895691 
	C238.916290,296.907043 240.306000,298.195984 241.312164,298.322693 
	C245.401031,298.837585 246.053696,301.655487 245.901611,304.818909 
	C245.655441,309.940002 244.640823,315.056580 244.762451,320.155731 
	C244.971832,328.934967 245.881638,337.695679 246.300476,346.473572 
	C246.368805,347.905426 245.425583,349.385559 244.949905,350.843384 
	C243.938873,349.752014 243.025665,348.543457 241.892853,347.597992 
	C240.364487,346.322449 238.580780,344.157410 237.057343,344.277985 
	C230.410675,344.804016 225.927200,342.568848 222.185715,336.832611 
	C219.187256,332.235535 214.395309,328.847595 210.837509,324.559509 
	C209.055939,322.412262 207.477127,319.538544 207.180618,316.842316 
	C206.679443,312.284943 204.607285,310.485626 200.275681,309.948486 
	C197.946976,309.659760 195.583298,308.533539 193.542007,307.284241 
	C189.559662,304.846985 187.388550,302.591034 192.222443,297.969604 
	C196.709732,293.679504 193.455032,286.697906 187.178894,286.088776 
	C183.139297,285.696686 181.053345,284.023468 180.947144,279.920563 
	C180.825882,275.235657 178.337585,272.978394 173.667480,272.952972 
	C169.689011,272.931335 167.943176,270.653900 168.046768,266.879547 
	C168.194855,261.482208 165.750854,258.846588 160.261734,258.939728 
	C156.874146,258.997192 154.345474,257.685974 154.272644,253.796021 
	C154.196472,249.728195 156.770187,248.607773 160.305115,247.928864 
	C162.424515,247.521805 165.780716,246.137146 166.012756,244.759308 
	C166.624588,241.126450 163.022827,240.957901 160.398987,239.868088 
	C158.191406,238.951141 155.601379,237.230698 154.708847,235.195694 
	C152.044693,229.121445 148.607544,224.094482 143.160583,220.011047 
	C141.140045,218.496338 140.724075,214.196915 140.476166,211.095490 
	C139.952011,204.537613 140.862244,197.752625 139.509933,191.418213 
	C138.773117,187.966873 135.064957,184.581009 131.859390,182.392059 
	C128.894424,180.367432 126.995644,178.376007 127.125671,174.918365 
	C127.368767,168.454285 128.070053,162.000137 128.100815,155.539581 
	C128.110687,153.463531 127.203125,150.561996 125.684227,149.462631 
	C121.978561,146.780533 120.202881,143.388931 121.469391,138.674927 
	C122.674980,134.187653 126.366310,135.653671 129.327530,135.484253 
	C130.306366,135.428238 131.305115,135.720459 132.644669,135.924744 
	C135.300919,140.155869 138.979233,138.156555 142.637894,138.012741 
	C147.720947,142.775421 152.393951,147.586624 157.089142,152.376144 
	C157.765945,153.066544 158.530426,154.175034 159.286469,154.202393 
	C164.395874,154.387405 166.981171,157.668625 169.908813,161.337036 
	C172.237885,164.255402 176.175278,165.845917 179.203247,168.269989 
	C180.659546,169.435883 182.150986,170.985519 182.775635,172.675827 
	C184.187103,176.495224 186.667892,178.353119 190.537766,179.555878 
	C193.324066,180.421860 195.727585,182.738678 198.098160,184.659698 
	C200.344177,186.479767 202.201111,188.779663 204.445435,190.602203 
	C211.451721,196.291748 218.560349,201.855270 225.927948,208.070526 
	C227.521149,210.904083 228.961060,213.064941 230.074326,215.382690 
	C231.545624,218.445831 233.120529,218.355881 235.058319,215.908417 
	C235.791641,215.935867 236.524963,215.963333 237.534607,216.344299 
	C236.905594,218.063293 236.154129,219.567886 235.067596,220.769485 
	C230.978882,225.291153 231.039810,225.294998 236.056808,228.814407 
	C237.271637,229.666595 238.735703,231.873871 238.403091,232.926620 
	C236.930450,237.587967 235.006775,242.130707 232.945801,246.577057 
	C229.187042,254.686142 231.008759,260.718811 237.781174,261.853912 
	C243.821152,262.866272 245.112503,266.337708 241.512268,271.566895 
	C240.220871,273.442566 238.877167,275.407532 238.182632,277.535797 
	C237.388931,279.967834 238.182022,282.172211 241.361740,281.307129 
	C245.047546,280.304413 246.479431,282.648346 248.047867,285.061066 
M141.276199,141.728088 
	C140.753906,141.515152 140.231628,141.302216 139.709335,141.089279 
	C139.659653,141.370773 139.609970,141.652283 139.560287,141.933777 
	C140.114059,141.967484 140.667847,142.001190 141.276199,141.728088 
M235.971954,333.979950 
	C235.971954,333.979950 236.004684,333.955231 235.971954,333.979950 
z"/>
<path fill="#F6B60F" opacity="1.000000" stroke="none" 
	d="
M146.992676,301.998047 
	C144.787262,299.389832 142.902863,296.389160 140.303329,294.262726 
	C136.101456,290.825531 135.326660,286.390472 134.883530,280.724152 
	C140.390076,281.897858 144.334625,284.399567 147.729904,288.144501 
	C151.966034,292.816895 155.546967,298.073334 162.504166,299.721222 
	C166.001022,300.549500 169.133652,303.400085 172.089050,305.763702 
	C173.106598,306.577484 173.613007,308.786896 173.352051,310.169891 
	C173.185226,311.054016 171.264267,311.907715 169.991531,312.231140 
	C164.160095,313.712921 159.193237,311.562622 154.933945,307.824341 
	C153.647461,306.695221 153.234100,304.571289 152.033356,302.108337 
	C151.147629,302.108337 149.384323,302.108337 147.310394,302.054199 
	C146.999802,302.000061 146.992676,301.998047 146.992676,301.998047 
z"/>
<path fill="#FBB913" opacity="1.000000" stroke="none" 
	d="
M146.084595,306.159546 
	C144.637512,305.253448 143.478851,304.420044 142.107758,303.357239 
	C143.390915,302.718353 144.886475,302.308807 146.687347,301.948669 
	C146.992676,301.998047 146.999802,302.000061 147.001450,302.003418 
	C147.952377,303.436554 148.901657,304.866302 150.294937,306.964783 
	C148.462601,306.622498 147.417816,306.427338 146.084595,306.159546 
z"/>
<path fill="#FBB913" opacity="1.000000" stroke="none" 
	d="
M247.797089,290.239746 
	C248.323212,292.394379 248.612289,294.799927 248.956360,297.601440 
	C245.873856,296.008240 245.370377,293.509796 247.797089,290.239746 
z"/>
<path fill="#F9B711" opacity="1.000000" stroke="none" 
	d="
M248.247711,284.844666 
	C246.479431,282.648346 245.047546,280.304413 241.361740,281.307129 
	C238.182022,282.172211 237.388931,279.967834 238.182632,277.535797 
	C238.877167,275.407532 240.220871,273.442566 241.512268,271.566895 
	C245.112503,266.337708 243.821152,262.866272 237.781174,261.853912 
	C231.008759,260.718811 229.187042,254.686142 232.945801,246.577057 
	C235.006775,242.130707 236.930450,237.587967 238.403091,232.926620 
	C238.735703,231.873871 237.271637,229.666595 236.056808,228.814407 
	C231.039810,225.294998 230.978882,225.291153 235.067596,220.769485 
	C236.154129,219.567886 236.905594,218.063293 237.901001,216.363800 
	C239.830917,218.351410 241.571075,220.762817 243.549942,222.959152 
	C244.643692,224.173111 246.137436,225.026672 247.732483,225.973297 
	C249.604355,224.804077 251.194611,223.704239 253.331070,222.274719 
	C257.948883,221.212250 262.145660,220.859177 266.036072,219.576706 
	C267.819458,218.988831 269.768555,216.767426 270.230408,214.931564 
	C270.657990,213.231949 269.730621,210.003021 268.443207,209.358459 
	C266.799683,208.535614 264.109863,209.355728 262.037506,210.001770 
	C260.769135,210.397186 259.813080,211.794495 258.208282,213.181259 
	C256.988037,211.216324 255.974747,209.584686 254.961472,207.953064 
	C254.643188,196.417419 254.046768,184.881042 254.076691,173.346298 
	C254.114502,158.764526 254.883804,144.184189 254.893173,129.602966 
	C254.897583,122.731567 253.865341,115.859489 253.237823,108.633034 
	C260.669464,108.580612 265.206818,114.087822 270.461578,118.242981 
	C274.804565,121.677162 279.044556,125.274017 283.036804,129.104538 
	C284.806030,130.802109 285.851440,133.254044 286.764587,135.703491 
	C283.563812,135.808395 280.321930,136.421051 278.190125,135.158844 
	C273.971222,132.660904 270.507996,128.921555 266.446411,126.108307 
	C264.437073,124.716553 261.792480,124.241867 259.435364,123.352249 
	C259.405151,125.662827 258.936218,128.071243 259.425659,130.265945 
	C260.999237,137.322235 262.847473,144.321548 264.775879,151.291336 
	C265.231415,152.937775 266.065186,154.810287 267.326904,155.844284 
	C272.165009,159.809189 272.646149,162.181152 271.125885,168.170151 
	C270.101074,172.207306 269.890137,176.633728 270.335754,180.776215 
	C270.528076,182.563995 273.033997,185.008652 274.943848,185.549988 
	C283.477844,187.968948 283.828094,188.236023 284.012207,197.387146 
	C284.286469,211.020660 284.762848,224.650391 284.986542,238.284470 
	C285.061371,242.844772 286.975616,244.793945 291.573334,245.092285 
	C296.357635,245.402740 301.169556,246.180588 305.807800,247.379242 
	C307.500214,247.816589 309.477203,249.814438 310.016449,251.515091 
	C311.258423,255.431732 313.648651,257.920654 317.358948,259.004059 
	C322.687622,260.560028 324.342682,264.697052 324.252411,269.340820 
	C324.074707,278.484131 322.758881,287.700531 331.831451,294.001556 
	C336.354340,297.142761 340.618713,300.656158 345.069153,304.355957 
	C346.683075,309.809937 350.236633,312.984070 355.126282,315.331787 
	C356.525238,319.150024 358.379761,321.636780 362.608276,322.080200 
	C369.359863,322.788269 376.850800,330.528900 377.907562,337.466858 
	C378.342743,340.324005 378.935547,342.873077 382.547852,342.727325 
	C386.514496,342.567200 386.100159,339.671204 386.124298,336.923584 
	C386.192932,329.108154 385.963165,321.257690 386.625580,313.487061 
	C387.760681,300.171539 389.625214,286.919067 390.841858,273.608856 
	C391.083954,270.960327 389.419159,268.187195 389.304718,265.443542 
	C389.168671,262.182831 389.602081,258.869110 390.078094,255.620789 
	C390.508362,252.684631 391.479462,249.828400 391.922699,246.893234 
	C392.213226,244.969254 391.988861,242.967514 392.199768,240.806808 
	C392.602417,239.406052 392.800415,238.199081 393.071960,236.684555 
	C393.427490,235.584000 393.709473,234.791016 394.301453,233.869553 
	C396.386993,232.828125 398.162476,231.915176 399.937958,231.002228 
	C399.944733,280.018585 399.951508,329.034943 399.717102,378.250732 
	C397.732300,370.322266 395.988678,362.194397 394.245087,354.066528 
	C392.829407,355.934174 392.332275,357.798157 392.121796,359.693970 
	C391.664093,363.816956 391.494080,367.977203 390.885498,372.074493 
	C390.726257,373.146515 389.559357,374.455750 388.534790,374.877258 
	C387.843414,375.161743 386.013367,374.306519 385.721344,373.559174 
	C385.262451,372.384705 385.418976,370.798767 385.787170,369.523407 
	C386.113129,368.394318 387.083191,367.451172 388.454498,365.400848 
	C386.090424,365.682281 384.663818,365.461517 383.723267,366.036163 
	C380.714722,367.874237 378.523102,366.911926 376.162018,364.766327 
	C370.815948,359.908112 365.413544,355.096069 359.787415,350.571991 
	C358.215332,349.307892 355.783051,349.113495 353.745361,348.428375 
	C353.143524,350.326630 352.541687,352.224884 351.939819,354.123138 
	C350.084900,352.588440 348.229980,351.053772 346.482178,349.175446 
	C347.457672,347.665833 348.355011,346.518066 349.127777,345.291809 
	C349.178101,345.211914 348.272400,344.529541 347.811401,344.127380 
	C346.894196,345.292267 345.972290,346.453491 345.067200,347.627716 
	C344.977264,347.744354 344.989990,347.940125 344.955078,348.099152 
	C344.119141,347.541504 343.283234,346.983856 342.219269,345.828064 
	C341.994568,344.153656 341.997894,343.077454 342.307709,341.938660 
	C343.437622,341.178101 344.261047,340.480072 345.084473,339.782043 
	C344.619965,339.442657 344.155457,339.103271 343.690948,338.763885 
	C343.126892,339.842194 342.562836,340.920471 341.595917,342.001343 
	C340.118134,342.018921 339.043213,342.033936 337.968292,342.048950 
	C337.968292,342.048950 337.950775,342.067047 337.935913,342.075134 
	C335.667633,337.368774 333.540924,332.585724 331.056458,327.996338 
	C330.545593,327.052673 328.698334,326.832458 327.467072,326.278748 
	C327.556671,327.057495 327.646271,327.836273 327.624817,329.033203 
	C327.006256,330.072754 326.498749,330.694092 325.991241,331.315430 
	C325.254181,331.226501 324.517090,331.137573 323.332092,330.876709 
	C322.593536,330.461792 322.302887,330.218750 322.012238,329.975739 
	C321.686188,329.867523 321.360107,329.759308 320.796448,329.558319 
	C320.489136,329.306213 320.419434,329.146912 320.315277,328.474060 
	C320.554138,322.003479 315.534332,319.369812 312.407532,315.577667 
	C311.576782,314.570129 310.197449,314.014954 309.069977,313.252075 
	C308.386261,314.476318 307.702545,315.700531 307.018860,316.924744 
	C306.640442,316.858704 306.262054,316.792694 305.604370,316.664917 
	C304.651306,315.582672 303.977509,314.562195 303.426636,313.098999 
	C306.756561,310.038818 306.232697,307.287109 303.596405,304.743622 
	C299.639282,300.925812 296.507477,301.055084 292.243530,304.950897 
	C289.289246,302.148560 286.334991,299.346252 283.182892,296.276276 
	C282.985077,296.008636 283.010529,295.987793 283.372437,295.931580 
	C285.026978,294.461365 287.596191,292.714111 287.333099,291.706177 
	C286.858398,289.887451 284.953674,287.992798 283.162079,287.079620 
	C280.873566,285.913116 277.872406,284.231415 276.031006,288.101166 
	C273.664337,287.368317 271.297699,286.635468 268.623688,285.769897 
	C267.090179,284.455048 265.864044,283.272919 264.366516,281.902100 
	C264.067474,280.725616 264.039825,279.737854 264.326477,278.306824 
	C265.412628,276.714264 266.184448,275.564941 266.956238,274.415588 
	C266.300385,274.027466 265.644531,273.639343 264.988678,273.251221 
	C264.596619,274.512268 264.178162,275.766174 263.832916,277.039917 
	C263.755981,277.323730 263.936676,277.677307 263.998779,277.998779 
	C262.045410,275.523499 260.154602,272.995178 258.117249,270.591095 
	C256.702698,268.921936 255.014420,266.046570 253.574692,266.121918 
	C250.059769,266.305908 250.268280,269.442322 250.948959,272.532471 
	C250.171478,276.791351 249.309509,280.709808 248.247711,284.844666 
z"/>
<path fill="#F9B711" opacity="1.000000" stroke="none" 
	d="
M234.932144,215.589172 
	C233.120529,218.355881 231.545624,218.445831 230.074326,215.382690 
	C228.961060,213.064941 227.521149,210.904083 226.116394,208.345947 
	C228.939453,210.435638 231.872711,212.852783 234.932144,215.589172 
z"/>
<path fill="#FBB913" opacity="1.000000" stroke="none" 
	d="
M345.000000,304.001221 
	C340.618713,300.656158 336.354340,297.142761 331.831451,294.001556 
	C322.758881,287.700531 324.074707,278.484131 324.252411,269.340820 
	C324.342682,264.697052 322.687622,260.560028 317.358948,259.004059 
	C313.648651,257.920654 311.258423,255.431732 310.016449,251.515091 
	C309.477203,249.814438 307.500214,247.816589 305.807800,247.379242 
	C301.169556,246.180588 296.357635,245.402740 291.573334,245.092285 
	C286.975616,244.793945 285.061371,242.844772 284.986542,238.284470 
	C284.762848,224.650391 284.286469,211.020660 284.012207,197.387146 
	C283.828094,188.236023 283.477844,187.968948 274.943848,185.549988 
	C273.033997,185.008652 270.528076,182.563995 270.335754,180.776215 
	C269.890137,176.633728 270.101074,172.207306 271.125885,168.170151 
	C272.646149,162.181152 272.165009,159.809189 267.326904,155.844284 
	C266.065186,154.810287 265.231415,152.937775 264.775879,151.291336 
	C262.847473,144.321548 260.999237,137.322235 259.425659,130.265945 
	C258.936218,128.071243 259.405151,125.662827 259.435364,123.352249 
	C261.792480,124.241867 264.437073,124.716553 266.446411,126.108307 
	C270.507996,128.921555 273.971222,132.660904 278.190125,135.158844 
	C280.321930,136.421051 283.563812,135.808395 286.710876,136.000443 
	C287.606842,136.482376 288.095734,137.007294 288.923157,138.027435 
	C292.313049,143.823929 298.339600,143.663071 303.001953,146.006790 
	C304.457977,147.582153 305.914032,149.157501 307.791504,151.159302 
	C308.868073,152.353104 309.523224,153.120468 310.178375,153.887833 
	C317.940826,155.074020 322.140106,161.237045 327.266693,166.109924 
	C328.690704,167.463455 330.215027,168.714371 331.600708,170.104660 
	C333.577576,172.088120 335.469025,174.156647 337.872803,176.690384 
	C342.456909,174.905457 349.369934,181.853928 349.649200,188.448547 
	C359.186188,189.400146 364.034851,197.268951 370.575378,202.838379 
	C368.895325,204.393143 367.295380,205.545013 364.937592,207.242493 
	C374.542816,209.061005 381.324402,212.976517 385.697052,220.545135 
	C386.425049,221.805267 387.474243,223.011520 388.652496,223.855148 
	C392.172058,226.375198 393.868073,229.745361 393.991455,233.998032 
	C393.709473,234.791016 393.427490,235.584000 392.946167,237.006256 
	C392.496216,238.757233 392.245667,239.878922 391.995117,241.000610 
	C391.988861,242.967514 392.213226,244.969254 391.922699,246.893234 
	C391.479462,249.828400 390.508362,252.684631 390.078094,255.620789 
	C389.602081,258.869110 389.168671,262.182831 389.304718,265.443542 
	C389.419159,268.187195 391.083954,270.960327 390.841858,273.608856 
	C389.625214,286.919067 387.760681,300.171539 386.625580,313.487061 
	C385.963165,321.257690 386.192932,329.108154 386.124298,336.923584 
	C386.100159,339.671204 386.514496,342.567200 382.547852,342.727325 
	C378.935547,342.873077 378.342743,340.324005 377.907562,337.466858 
	C376.850800,330.528900 369.359863,322.788269 362.608276,322.080200 
	C358.379761,321.636780 356.525238,319.150024 355.594299,315.331818 
	C360.092102,314.976501 364.256348,315.094757 368.404999,314.893127 
	C373.487335,314.646210 375.602570,312.312714 375.523346,307.274750 
	C375.382294,298.300903 375.019684,289.327881 375.038452,280.355133 
	C375.048767,275.426025 373.257965,272.797577 368.071228,272.953064 
	C363.539154,273.088928 361.951569,270.453979 362.016785,266.282990 
	C362.079163,262.292847 362.032928,258.300446 361.994202,254.309448 
	C361.950592,249.821472 362.097504,245.314178 361.723755,240.851959 
	C361.378815,236.733719 357.959625,234.202484 353.689819,234.342987 
	C349.094696,234.494202 349.150970,237.895355 349.035065,241.116760 
	C348.963318,243.110092 348.880890,245.116486 349.019806,247.101852 
	C350.277893,265.081604 347.627472,282.824463 345.814545,300.616974 
	C345.697998,301.760864 345.278534,302.873840 345.000000,304.001221 
M375.019958,214.972153 
	C375.019958,214.972153 375.044586,215.004791 375.019958,214.972153 
z"/>
<path fill="#FAB90E" opacity="1.000000" stroke="none" 
	d="
M394.301453,233.869553 
	C393.868073,229.745361 392.172058,226.375198 388.652496,223.855148 
	C387.474243,223.011520 386.425049,221.805267 385.697052,220.545135 
	C381.324402,212.976517 374.542816,209.061005 364.937592,207.242493 
	C367.295380,205.545013 368.895325,204.393143 370.806702,203.080048 
	C380.551270,210.824936 389.984406,218.731018 399.684326,226.824280 
	C399.954651,228.075516 399.958252,229.139603 399.949890,230.602966 
	C398.162476,231.915176 396.386993,232.828125 394.301453,233.869553 
z"/>
<path fill="#F9B711" opacity="1.000000" stroke="none" 
	d="
M302.842041,145.713257 
	C298.339600,143.663071 292.313049,143.823929 289.129578,138.202850 
	C295.402374,137.048248 298.909790,141.474503 302.842041,145.713257 
z"/>
<path fill="#F9B711" opacity="1.000000" stroke="none" 
	d="
M310.037781,153.617599 
	C309.523224,153.120468 308.868073,152.353104 308.095764,151.301331 
	C308.618134,151.793732 309.257690,152.570557 310.037781,153.617599 
z"/>
<path fill="#FBB913" opacity="1.000000" stroke="none" 
	d="
M254.739960,208.259430 
	C255.974747,209.584686 256.988037,211.216324 258.208282,213.181259 
	C259.813080,211.794495 260.769135,210.397186 262.037506,210.001770 
	C264.109863,209.355728 266.799683,208.535614 268.443207,209.358459 
	C269.730621,210.003021 270.657990,213.231949 270.230408,214.931564 
	C269.768555,216.767426 267.819458,218.988831 266.036072,219.576706 
	C262.145660,220.859177 257.948883,221.212250 253.480438,221.971985 
	C253.561890,217.521210 254.040176,213.043518 254.739960,208.259430 
z"/>
<path fill="#FAB90E" opacity="1.000000" stroke="none" 
	d="
M352.128662,354.372803 
	C352.541687,352.224884 353.143524,350.326630 353.745361,348.428375 
	C355.783051,349.113495 358.215332,349.307892 359.787415,350.571991 
	C365.413544,355.096069 370.815948,359.908112 376.162018,364.766327 
	C378.523102,366.911926 380.714722,367.874237 383.723267,366.036163 
	C384.663818,365.461517 386.090424,365.682281 388.454498,365.400848 
	C387.083191,367.451172 386.113129,368.394318 385.787170,369.523407 
	C385.418976,370.798767 385.262451,372.384705 385.721344,373.559174 
	C386.013367,374.306519 387.843414,375.161743 388.534790,374.877258 
	C389.559357,374.455750 390.726257,373.146515 390.885498,372.074493 
	C391.494080,367.977203 391.664093,363.816956 392.121796,359.693970 
	C392.332275,357.798157 392.829407,355.934174 394.245087,354.066528 
	C395.988678,362.194397 397.732300,370.322266 399.709961,378.718536 
	C399.996368,379.753967 400.048767,380.520996 400.140594,381.671570 
	C399.971466,385.554871 399.762878,389.054657 399.554260,392.554443 
	C399.076813,392.743927 398.599365,392.933411 398.121918,393.122894 
	C394.876984,390.244080 391.632019,387.365265 388.422333,384.088623 
	C389.727844,382.526184 390.998047,381.361542 392.969513,379.553925 
	C388.370056,378.495392 387.453186,380.513550 386.987335,383.120239 
	C384.998444,382.036072 383.009552,380.951904 380.725586,379.714478 
	C377.041534,376.243896 373.652557,372.926605 370.278625,369.138245 
	C370.881409,367.601746 371.469116,366.536285 372.056854,365.470795 
	C371.675049,365.180817 371.293243,364.890808 370.911438,364.600800 
	C369.913086,365.457733 368.914764,366.314667 367.916443,367.171570 
	C363.932892,364.415833 359.949341,361.660095 355.652893,358.765930 
	C354.332550,357.292480 353.325043,355.957489 352.128662,354.372803 
z"/>
<path fill="#EDB320" opacity="1.000000" stroke="none" 
	d="
M326.090332,331.517761 
	C326.498749,330.694092 327.006256,330.072754 327.744659,329.268250 
	C327.717804,330.226959 327.460052,331.368835 327.016388,332.716614 
	C326.616791,332.521667 326.403107,332.120880 326.090332,331.517761 
z"/>
<path fill="#F9B711" opacity="1.000000" stroke="none" 
	d="
M368.099670,367.371338 
	C368.914764,366.314667 369.913086,365.457733 370.911438,364.600800 
	C371.293243,364.890808 371.675049,365.180817 372.056854,365.470795 
	C371.469116,366.536285 370.881409,367.601746 370.064148,368.877808 
	C369.317352,368.582642 368.800110,368.076874 368.099670,367.371338 
z"/>
<path fill="#F9B711" opacity="1.000000" stroke="none" 
	d="
M387.134399,383.276001 
	C387.453186,380.513550 388.370056,378.495392 392.969513,379.553925 
	C390.998047,381.361542 389.727844,382.526184 388.171143,383.865906 
	C387.680664,383.840851 387.479614,383.637787 387.134399,383.276001 
z"/>
<path fill="#FAB90E" opacity="1.000000" stroke="none" 
	d="
M345.116669,348.256653 
	C344.989990,347.940125 344.977264,347.744354 345.067200,347.627716 
	C345.972290,346.453491 346.894196,345.292267 347.811401,344.127380 
	C348.272400,344.529541 349.178101,345.211914 349.127777,345.291809 
	C348.355011,346.518066 347.457672,347.665833 346.262817,348.931885 
	C345.714417,348.828705 345.495056,348.622772 345.116669,348.256653 
z"/>
<path fill="#FAB90E" opacity="1.000000" stroke="none" 
	d="
M342.001221,342.001221 
	C341.997894,343.077454 341.994568,344.153656 341.987701,345.634583 
	C340.766235,344.881378 339.548279,343.723511 338.149292,342.307281 
	C339.043213,342.033936 340.118134,342.018921 341.596527,342.001953 
	C342.000000,342.000000 342.001221,342.001221 342.001221,342.001221 
z"/>
<path fill="#FAB90E" opacity="1.000000" stroke="none" 
	d="
M292.274719,305.158386 
	C296.507477,301.055084 299.639282,300.925812 303.596405,304.743622 
	C306.232697,307.287109 306.756561,310.038818 303.257568,312.839844 
	C299.948883,310.976807 296.932159,308.930176 293.569489,306.765381 
	C293.028564,306.461060 292.837463,306.271027 292.515198,305.927917 
	C292.380127,305.778809 292.305939,305.365845 292.274719,305.158386 
z"/>
<path fill="#F9B711" opacity="1.000000" stroke="none" 
	d="
M277.464966,293.019409 
	C277.889221,291.974487 278.604614,291.076630 279.853485,290.299896 
	C281.261505,292.276611 282.136017,294.132202 283.010529,295.987793 
	C283.010529,295.987793 282.985077,296.008636 282.970703,296.019409 
	C281.222900,295.075592 279.489532,294.121063 277.464966,293.019409 
z"/>
<path fill="#FAB90E" opacity="1.000000" stroke="none" 
	d="
M283.372437,295.931580 
	C282.136017,294.132202 281.261505,292.276611 280.133179,290.178345 
	C278.807617,289.354187 277.735809,288.772705 276.347534,288.146210 
	C277.872406,284.231415 280.873566,285.913116 283.162079,287.079620 
	C284.953674,287.992798 286.858398,289.887451 287.333099,291.706177 
	C287.596191,292.714111 285.026978,294.461365 283.372437,295.931580 
z"/>
<path fill="#EDB320" opacity="1.000000" stroke="none" 
	d="
M322.038696,330.199860 
	C322.302887,330.218750 322.593536,330.461792 322.964600,330.824371 
	C323.044983,330.943939 322.584137,330.913788 322.355103,330.892517 
	C322.126099,330.871216 322.065125,330.423981 322.038696,330.199860 
z"/>
<path fill="#FAB90E" opacity="1.000000" stroke="none" 
	d="
M307.288696,317.124512 
	C307.702545,315.700531 308.386261,314.476318 309.069977,313.252075 
	C310.197449,314.014954 311.576782,314.570129 312.407532,315.577667 
	C315.534332,319.369812 320.554138,322.003479 320.211304,328.234802 
	C320.141815,328.509125 319.735352,328.481873 319.535034,328.454254 
	C319.119934,328.274353 318.909760,328.115936 318.553528,327.824341 
	C317.174255,326.453979 315.945679,325.210693 314.440704,323.772644 
	C311.962372,321.493317 309.760468,319.408783 307.288696,317.124512 
z"/>
<path fill="#F6B811" opacity="1.000000" stroke="none" 
	d="
M141.248901,141.881500 
	C140.667847,142.001190 140.114059,141.967484 139.560287,141.933777 
	C139.609970,141.652283 139.659653,141.370773 139.709335,141.089279 
	C140.231628,141.302216 140.753906,141.515152 141.248901,141.881500 
z"/>
<path fill="#F9B711" opacity="1.000000" stroke="none" 
	d="
M235.988312,333.967590 
	C236.004684,333.955231 235.971954,333.979950 235.988312,333.967590 
z"/>
<path fill="#FBB810" opacity="1.000000" stroke="none" 
	d="
M345.069153,304.355957 
	C345.278534,302.873840 345.697998,301.760864 345.814545,300.616974 
	C347.627472,282.824463 350.277893,265.081604 349.019806,247.101852 
	C348.880890,245.116486 348.963318,243.110092 349.035065,241.116760 
	C349.150970,237.895355 349.094696,234.494202 353.689819,234.342987 
	C357.959625,234.202484 361.378815,236.733719 361.723755,240.851959 
	C362.097504,245.314178 361.950592,249.821472 361.994202,254.309448 
	C362.032928,258.300446 362.079163,262.292847 362.016785,266.282990 
	C361.951569,270.453979 363.539154,273.088928 368.071228,272.953064 
	C373.257965,272.797577 375.048767,275.426025 375.038452,280.355133 
	C375.019684,289.327881 375.382294,298.300903 375.523346,307.274750 
	C375.602570,312.312714 373.487335,314.646210 368.404999,314.893127 
	C364.256348,315.094757 360.092102,314.976501 355.466797,315.000000 
	C350.236633,312.984070 346.683075,309.809937 345.069153,304.355957 
z"/>
<path fill="#FAB90E" opacity="1.000000" stroke="none" 
	d="
M263.999390,277.999390 
	C263.936676,277.677307 263.755981,277.323730 263.832916,277.039917 
	C264.178162,275.766174 264.596619,274.512268 264.988678,273.251221 
	C265.644531,273.639343 266.300385,274.027466 266.956238,274.415588 
	C266.184448,275.564941 265.412628,276.714264 264.321014,277.932404 
	C264.001221,278.001221 264.000000,278.000000 263.999390,277.999390 
z"/>
<path fill="#FAB90E" opacity="1.000000" stroke="none" 
	d="
M341.999390,341.999390 
	C342.562836,340.920471 343.126892,339.842194 343.690948,338.763885 
	C344.155457,339.103271 344.619965,339.442657 345.084473,339.782043 
	C344.261047,340.480072 343.437622,341.178101 342.307709,341.938660 
	C342.001221,342.001221 342.000000,342.000000 341.999390,341.999390 
z"/>
<path fill="#FAB90E" opacity="1.000000" stroke="none" 
	d="
M392.199768,240.806808 
	C392.245667,239.878922 392.496216,238.757233 392.872620,237.313843 
	C392.800415,238.199081 392.602417,239.406052 392.199768,240.806808 
z"/>
<path fill="#FAB90E" opacity="1.000000" stroke="none" 
	d="
M375.032288,214.988464 
	C375.044586,215.004791 375.019958,214.972153 375.032288,214.988464 
z"/>
</svg>